#!OML:ASF F:\VICON\USERDATA\INSTALL\rory3\rory3.ASF
:FULLY-SPECIFIED
:DEGREES
5254
root -2.79108 17.3222 -3.17908 3.46157 41.9413 3.69748
lowerback 14.1893 -1.63947 -1.13399
upperback 0.653299 -2.21872 1.48309
thorax -7.16668 -1.00585 2.66102
lowerneck -18.7185 -11.3857 -11.5649
upperneck 16.0138 -15.8632 15.5695
head 10.4807 -6.49475 4.85159
rclavicle 2.5345e-014 -9.54166e-015
rhumerus 28.1522 -8.95174 -38.3413
rradius 48.4673
rwrist 16.1178
rhand -10.7656 4.63312
rfingers 7.12502
rthumb 15.2463 -24.785
lclavicle 2.5345e-014 -9.54166e-015
lhumerus -4.57168 -48.7147 90.585
lradius 120.684
lwrist 0.904299
lhand -6.15312 17.0244
lfingers 7.12502
lthumb 19.6852 46.0477
rfemur -25.1967 -4.35096 -0.122568
rtibia 45.6633
rfoot 2.90932 0.814818
rtoes 20.0363
lfemur -13.0657 -8.5635 7.84135
ltibia 41.1692
lfoot 8.19223 -16.4598
ltoes -31.3339
5255
root -2.8004 17.2431 -3.17587 3.03572 43.5883 3.48719
lowerback 14.009 -1.99501 -2.0149
upperback 0.85213 -2.80371 1.78855
thorax -6.7647 -1.2672 3.58264
lowerneck -18.6421 -11.3723 -12.1258
upperneck 16.4343 -15.746 15.5147
head 10.641 -6.47315 4.95218
rclavicle -2.90226e-014 3.18055e-015
rhumerus 26.4471 -8.95888 -40.3276
rradius 52.6561
rwrist 15.4136
rhand -10.9249 4.66923
rfingers 7.12502
rthumb 15.0928 -24.7605
lclavicle -2.90226e-014 3.18055e-015
lhumerus -4.3123 -47.2423 90.4965
lradius 121.181
lwrist 1.67736
lhand -6.66493 15.9377
lfingers 7.12502
lthumb 19.1931 45.0106
rfemur -24.2375 -3.48446 0.0678955
rtibia 46.064
rfoot -3.49957 -2.79941
rtoes 7.11371
lfemur -13.2909 -9.32171 8.81442
ltibia 41.0106
lfoot 9.04106 -16.9853
ltoes -30.8656
5256
root -2.7994 17.1649 -3.17348 2.61452 44.9218 3.11269
lowerback 13.788 -2.31341 -2.39174
upperback 0.956462 -3.2756 1.85524
thorax -6.4702 -1.4942 3.93809
lowerneck -18.5825 -11.5163 -12.6648
upperneck 17.139 -15.9123 15.5081
head 10.9569 -6.56493 5.01518
rclavicle 2.45499e-014 1.11319e-014
rhumerus 24.1836 -9.03501 -42.2883
rradius 56.46
rwrist 19.2862
rhand -11.5627 5.08013
rfingers 7.12502
rthumb 14.4784 -24.3948
lclavicle 2.45499e-014 1.11319e-014
lhumerus -4.19187 -46.0543 90.2609
lradius 121.693
lwrist 1.7683
lhand -6.3807 15.5574
lfingers 7.12502
lthumb 19.4664 44.603
rfemur -23.4022 -2.37189 0.310747
rtibia 46.3728
rfoot -7.20831 -4.43252
rtoes 1.43333
lfemur -13.2975 -9.88052 9.79148
ltibia 40.6926
lfoot 9.89126 -17.3642
ltoes -30.8841
5257
root -2.78735 17.0855 -3.17917 2.40922 45.9682 2.77517
lowerback 13.3702 -2.51106 -2.57814
upperback 1.0309 -3.56568 1.76021
thorax -6.12942 -1.64319 3.96569
lowerneck -18.7086 -11.5113 -12.7534
upperneck 17.5615 -15.8894 15.3452
head 11.1211 -6.55867 4.97683
rclavicle -6.09275e-014 1.82882e-014
rhumerus 21.7055 -9.23861 -44.0278
rradius 59.8611
rwrist 23.7753
rhand -12.4391 5.74064
rfingers 7.12502
rthumb 13.6338 -23.7929
lclavicle -6.09275e-014 1.82882e-014
lhumerus -3.91681 -45.1742 89.8563
lradius 122.042
lwrist 1.75928
lhand -5.95016 15.8619
lfingers 7.12502
lthumb 19.8803 44.8651
rfemur -22.8276 -1.34029 0.44912
rtibia 46.6901
rfoot -7.24276 -1.59536
rtoes 5.62947
lfemur -13.2648 -10.2356 10.5892
ltibia 40.3127
lfoot 10.8107 -17.4139
ltoes -31.3467
5258
root -2.77019 16.9973 -3.19645 2.13265 46.8501 2.36396
lowerback 13.0761 -2.63287 -2.57868
upperback 1.09657 -3.73483 1.56127
thorax -5.89552 -1.73607 3.76312
lowerneck -18.5736 -11.568 -12.689
upperneck 17.7219 -16.0271 15.3391
head 11.1704 -6.61905 4.94422
rclavicle -6.97237e-014 -1.15295e-014
rhumerus 19.165 -9.27272 -45.621
rradius 63.1335
rwrist 25.6597
rhand -13.1272 6.32885
rfingers 7.12502
rthumb 12.9706 -23.248
lclavicle -6.97237e-014 -1.15295e-014
lhumerus -3.53579 -44.5935 89.2863
lradius 122.238
lwrist 1.59584
lhand -5.89055 16.5184
lfingers 7.12502
lthumb 19.9376 45.5156
rfemur -22.3895 -0.307558 0.567194
rtibia 47.0702
rfoot -8.50171 -0.737192
rtoes 2.89002
lfemur -13.1174 -10.5565 11.3052
ltibia 39.9519
lfoot 11.638 -17.2993
ltoes -31.8811
5259
root -2.75025 16.8979 -3.23111 1.71435 47.7143 1.93808
lowerback 13.0852 -2.75501 -2.49976
upperback 1.1852 -3.8962 1.36226
thorax -5.81313 -1.82204 3.53264
lowerneck -18.2853 -11.7164 -12.7235
upperneck 17.622 -16.2915 15.5122
head 11.1444 -6.74045 4.96812
rclavicle 3.75206e-014 -1.35174e-014
rhumerus 16.6535 -8.91829 -47.0126
rradius 66.6018
rwrist 24.4495
rhand -13.6166 6.76332
rfingers 7.12502
rthumb 12.4987 -22.8429
lclavicle 3.75206e-014 -1.35174e-014
lhumerus -2.97889 -44.2214 88.6628
lradius 122.25
lwrist 0.779222
lhand -6.52225 17.0035
lfingers 7.12502
lthumb 19.3303 46.0628
rfemur -22.009 0.531826 0.629757
rtibia 47.538
rfoot -10.8151 -1.62648
rtoes -2.86497
lfemur -12.9063 -10.8949 11.8908
ltibia 39.6497
lfoot 12.2046 -17.313
ltoes -32.0057
5260
root -2.71997 16.7961 -3.28074 1.39772 48.5732 1.66123
lowerback 13.2011 -2.88094 -2.43676
upperback 1.25978 -4.06268 1.22098
thorax -5.80069 -1.907 3.38082
lowerneck -18.0738 -11.8714 -12.9606
upperneck 17.4825 -16.4995 15.7041
head 11.1304 -6.84603 5.03845
rclavicle -4.27884e-014 4.96962e-015
rhumerus 14.0783 -8.22747 -48.0893
rradius 70.4608
rwrist 21.5181
rhand -14.0759 6.97455
rfingers 7.12502
rthumb 12.056 -22.6582
lclavicle -4.27884e-014 4.96962e-015
lhumerus -2.22797 -43.8912 88.1828
lradius 122.105
lwrist -0.232424
lhand -7.50059 17.045
lfingers 7.12502
lthumb 18.3893 46.1958
rfemur -21.7085 0.998063 0.529558
rtibia 48.0809
rfoot -12.5562 -2.25313
rtoes -9.68676
lfemur -12.734 -11.2443 12.21
ltibia 39.4133
lfoot 12.4407 -17.6206
ltoes -31.6697
5261
root -2.67997 16.6974 -3.33722 1.23092 49.4162 1.4731
lowerback 13.3658 -3.00945 -2.24855
upperback 1.21586 -4.21949 1.05029
thorax -5.95431 -1.98551 3.13546
lowerneck -17.8882 -12.0092 -13.242
upperneck 17.4067 -16.668 15.8539
head 11.1383 -6.93785 5.10836
rclavicle 7.95139e-016 1.78906e-015
rhumerus 11.2332 -7.41609 -49.0334
rradius 74.6789
rwrist 18.6996
rhand -14.3355 7.01318
rfingers 7.12502
rthumb 11.8055 -22.6341
lclavicle 7.95139e-016 1.78906e-015
lhumerus -1.65948 -43.6466 87.852
lradius 121.957
lwrist -1.12075
lhand -8.46435 17.0147
lfingers 7.12502
lthumb 17.462 46.2504
rfemur -21.5586 1.09523 0.377498
rtibia 48.7016
rfoot -13.5886 -2.0194
rtoes -10.1066
lfemur -12.6208 -11.5424 12.34
ltibia 39.2228
lfoot 12.4874 -18.2327
ltoes -31.4022
5262
root -2.63321 16.595 -3.39835 1.18101 50.1341 1.28094
lowerback 13.4432 -3.11765 -2.01234
upperback 1.09701 -4.34115 0.903902
thorax -6.14481 -2.04732 2.88111
lowerneck -17.7035 -12.0742 -13.382
upperneck 17.2898 -16.7229 15.8396
head 11.0808 -6.98761 5.11841
rclavicle 5.79209e-014 -1.37161e-014
rhumerus 8.39776 -6.62075 -49.999
rradius 78.9368
rwrist 16.9017
rhand -14.4448 7.28947
rfingers 7.12502
rthumb 11.7002 -22.3638
lclavicle 5.79209e-014 -1.37161e-014
lhumerus -1.23366 -43.4206 87.5622
lradius 121.875
lwrist -1.91188
lhand -9.23616 17.2785
lfingers 7.12502
lthumb 16.7191 46.5786
rfemur -21.6473 0.855424 0.264484
rtibia 49.37
rfoot -14.647 -2.00999
rtoes -8.74438
lfemur -12.5445 -11.6163 12.3463
ltibia 39.0526
lfoot 12.4763 -18.8627
ltoes -31.2788
5263
root -2.58004 16.4944 -3.46553 1.14202 50.7237 0.95867
lowerback 13.2377 -3.1575 -1.8832
upperback 1.06716 -4.36698 0.990039
thorax -6.06365 -2.06456 2.89121
lowerneck -17.5598 -12.119 -13.6874
upperneck 16.9938 -16.6543 15.7574
head 10.9526 -7.00306 5.14976
rclavicle -1.94983e-013 2.38542e-014
rhumerus 5.93644 -5.92841 -50.7414
rradius 83.0111
rwrist 15.8597
rhand -14.4972 7.66436
rfingers 7.12502
rthumb 11.6496 -21.9918
lclavicle -1.94983e-013 2.38542e-014
lhumerus -0.541825 -43.2191 87.5452
lradius 121.574
lwrist -2.4767
lhand -9.952 17.4663
lfingers 7.12502
lthumb 16.0299 46.8232
rfemur -21.9159 0.426386 0.273675
rtibia 50.0167
rfoot -16.0116 -2.75806
rtoes -11.0802
lfemur -12.4574 -11.382 12.2997
ltibia 38.9008
lfoot 11.7569 -19.4177
ltoes -33.3057
5264
root -2.51805 16.4018 -3.54268 0.848938 51.1522 0.272893
lowerback 12.9437 -3.14786 -1.53268
upperback 1.07484 -4.28258 1.252
thorax -5.90235 -2.03317 2.93536
lowerneck -17.5853 -12.181 -14.1077
upperneck 16.7674 -16.5349 15.5315
head 10.8671 -7.0057 5.15098
rclavicle -4.32605e-014 -3.18055e-015
rhumerus 3.69722 -5.28745 -51.3003
rradius 86.8837
rwrist 15.067
rhand -14.7559 8.235
rfingers 7.12502
rthumb 11.4002 -21.4351
lclavicle -4.32605e-014 -3.18055e-015
lhumerus 0.241359 -43.0459 87.7543
lradius 121.223
lwrist -2.85281
lhand -10.4671 17.3893
lfingers 7.12502
lthumb 15.5338 46.7854
rfemur -22.2362 -0.0614456 0.499659
rtibia 50.5487
rfoot -17.2609 -3.51193
rtoes -12.6814
lfemur -12.1792 -10.9413 12.3182
ltibia 38.8037
lfoot 9.47621 -19.2461
ltoes -37.9471
5265
root -2.4497 16.3162 -3.63686 0.622738 51.5183 -0.418648
lowerback 12.6725 -3.12178 -1.01522
upperback 1.02709 -4.1572 1.49955
thorax -5.82763 -1.98325 2.86838
lowerneck -17.6899 -12.2396 -14.4021
upperneck 16.5916 -16.4226 15.2239
head 10.7956 -7.00502 5.09923
rclavicle 3.79182e-014 -1.70955e-014
rhumerus 1.50701 -4.81406 -51.811
rradius 90.7015
rwrist 14.2806
rhand -14.6882 9.12759
rfingers 7.12502
rthumb 11.4655 -20.5389
lclavicle 3.79182e-014 -1.70955e-014
lhumerus 0.887762 -42.8986 87.95
lradius 121.043
lwrist -3.14841
lhand -10.4938 17.3285
lfingers 7.12502
lthumb 15.508 46.7265
rfemur -22.6017 -0.700269 0.636149
rtibia 50.8826
rfoot -18.0541 -3.80128
rtoes -11.9817
lfemur -11.8774 -10.5529 12.1999
ltibia 38.7947
lfoot 6.26973 -17.1901
ltoes -40.7604
5266
root -2.37099 16.2396 -3.74469 0.913353 51.8733 -0.535743
lowerback 12.3575 -3.08411 -0.712025
upperback 0.913319 -4.05885 1.62022
thorax -5.79018 -1.94211 2.79298
lowerneck -17.6675 -12.2673 -14.5195
upperneck 16.3693 -16.3152 14.8777
head 10.665 -7.00609 5.01043
rclavicle -1.00386e-013 -1.98785e-015
rhumerus -0.64817 -4.41518 -52.3108
rradius 94.4459
rwrist 13.726
rhand -14.3354 9.86446
rfingers 7.12502
rthumb 11.8057 -19.7828
lclavicle -1.00386e-013 -1.98785e-015
lhumerus 1.18217 -42.8536 88.224
lradius 120.968
lwrist -3.39571
lhand -10.4049 17.1576
lfingers 7.12502
lthumb 15.5937 46.549
rfemur -22.9269 -1.42046 0.268343
rtibia 50.9613
rfoot -18.4601 -3.92958
rtoes -11.9012
lfemur -11.5504 -10.1318 11.5525
ltibia 38.9129
lfoot 2.32347 -14.1939
ltoes -39.7226
5267
root -2.28097 16.1889 -3.85683 1.36931 52.1754 -0.32434
lowerback 12.0511 -3.0614 -0.547945
upperback 0.831411 -4.0066 1.65353
thorax -5.71754 -1.92195 2.71088
lowerneck -17.7136 -12.2319 -14.5241
upperneck 16.2658 -16.161 14.5457
head 10.5749 -6.97043 4.91881
rclavicle -9.53669e-014 3.29983e-014
rhumerus -2.65829 -4.03165 -52.926
rradius 98.039
rwrist 13.3921
rhand -14.1015 10.4215
rfingers 7.12502
rthumb 12.0312 -19.2127
lclavicle -9.53669e-014 3.29983e-014
lhumerus 1.25495 -42.9292 88.4778
lradius 120.972
lwrist -3.52881
lhand -10.3463 16.8704
lfingers 7.12502
lthumb 15.6502 46.2574
rfemur -22.9871 -1.89749 -0.433208
rtibia 50.7602
rfoot -18.7887 -3.90352
rtoes -11.327
lfemur -11.0486 -9.58944 10.5512
ltibia 39.0773
lfoot -2.25633 -11.9019
ltoes -39.3215
5268
root -2.18547 16.1553 -3.97511 1.89921 52.42 0.032764
lowerback 11.7686 -3.07051 -0.474187
upperback 0.788875 -4.00823 1.70041
thorax -5.60658 -1.92637 2.70221
lowerneck -17.8664 -12.178 -14.5999
upperneck 16.2261 -15.9897 14.3512
head 10.5467 -6.91056 4.8879
rclavicle 1.30005e-013 -2.70347e-014
rhumerus -4.45589 -3.63541 -53.6025
rradius 101.492
rwrist 13.0933
rhand -14.1782 11.3677
rfingers 7.12502
rthumb 11.9573 -18.2708
lclavicle 1.30005e-013 -2.70347e-014
lhumerus 1.36429 -42.9961 88.5392
lradius 121.062
lwrist -3.45439
lhand -10.3581 16.7224
lfingers 7.12502
lthumb 15.6387 46.1103
rfemur -22.8624 -2.2093 -1.31798
rtibia 50.3084
rfoot -18.9207 -3.56536
rtoes -9.90119
lfemur -10.6296 -9.0542 9.39331
ltibia 39.174
lfoot -6.50447 -9.65184
ltoes -42.7539
